<mxfile host="app.diagrams.net" modified="2021-02-18T05:06:15.975Z" agent="5.0 (Macintosh; Intel Mac OS X 10_15_5) AppleWebKit/537.36 (KHTML, like Gecko) Chrome/88.0.4324.96 Safari/537.36" etag="bJENIVDB8ua5yPbJHzg2" version="13.7.3" type="github">
  <diagram id="C5RBs43oDa-KdzZeNtuy" name="Page-1">
    <mxGraphModel dx="1298" dy="726" grid="1" gridSize="10" guides="1" tooltips="1" connect="1" arrows="1" fold="1" page="1" pageScale="1" pageWidth="827" pageHeight="1169" math="0" shadow="0">
      <root>
        <mxCell id="WIyWlLk6GJQsqaUBKTNV-0" />
        <mxCell id="WIyWlLk6GJQsqaUBKTNV-1" parent="WIyWlLk6GJQsqaUBKTNV-0" />
        <mxCell id="QeTMNxzh0xOTBO19bwK3-41" value="" style="edgeStyle=orthogonalEdgeStyle;rounded=0;orthogonalLoop=1;jettySize=auto;html=1;" edge="1" parent="WIyWlLk6GJQsqaUBKTNV-1" source="WIyWlLk6GJQsqaUBKTNV-3" target="QeTMNxzh0xOTBO19bwK3-40">
          <mxGeometry relative="1" as="geometry" />
        </mxCell>
        <mxCell id="WIyWlLk6GJQsqaUBKTNV-3" value="&lt;b&gt;InitiateV2&lt;/b&gt;&lt;br&gt;accountId&lt;br&gt;paymentType (Current, Early)&lt;br&gt;PaymentGateway" style="rounded=1;whiteSpace=wrap;html=1;fontSize=12;glass=0;strokeWidth=1;shadow=0;" parent="WIyWlLk6GJQsqaUBKTNV-1" vertex="1">
          <mxGeometry x="330" y="60" width="200" height="60" as="geometry" />
        </mxCell>
        <mxCell id="QeTMNxzh0xOTBO19bwK3-6" value="" style="edgeStyle=orthogonalEdgeStyle;rounded=0;orthogonalLoop=1;jettySize=auto;html=1;" edge="1" parent="WIyWlLk6GJQsqaUBKTNV-1" source="WIyWlLk6GJQsqaUBKTNV-11" target="QeTMNxzh0xOTBO19bwK3-5">
          <mxGeometry relative="1" as="geometry" />
        </mxCell>
        <mxCell id="WIyWlLk6GJQsqaUBKTNV-11" value="Find Payables" style="rounded=1;whiteSpace=wrap;html=1;fontSize=12;glass=0;strokeWidth=1;shadow=0;" parent="WIyWlLk6GJQsqaUBKTNV-1" vertex="1">
          <mxGeometry x="370" y="510" width="120" height="40" as="geometry" />
        </mxCell>
        <mxCell id="QeTMNxzh0xOTBO19bwK3-53" value="" style="edgeStyle=orthogonalEdgeStyle;rounded=0;orthogonalLoop=1;jettySize=auto;html=1;" edge="1" parent="WIyWlLk6GJQsqaUBKTNV-1" source="QeTMNxzh0xOTBO19bwK3-5" target="QeTMNxzh0xOTBO19bwK3-52">
          <mxGeometry relative="1" as="geometry" />
        </mxCell>
        <mxCell id="QeTMNxzh0xOTBO19bwK3-5" value="Create Bill Record" style="whiteSpace=wrap;html=1;rounded=1;shadow=0;strokeWidth=1;glass=0;" vertex="1" parent="WIyWlLk6GJQsqaUBKTNV-1">
          <mxGeometry x="370" y="575" width="120" height="40" as="geometry" />
        </mxCell>
        <mxCell id="QeTMNxzh0xOTBO19bwK3-51" style="edgeStyle=orthogonalEdgeStyle;rounded=0;orthogonalLoop=1;jettySize=auto;html=1;exitX=0.5;exitY=1;exitDx=0;exitDy=0;entryX=0.5;entryY=0;entryDx=0;entryDy=0;" edge="1" parent="WIyWlLk6GJQsqaUBKTNV-1" source="QeTMNxzh0xOTBO19bwK3-11" target="WIyWlLk6GJQsqaUBKTNV-11">
          <mxGeometry relative="1" as="geometry">
            <Array as="points">
              <mxPoint x="559" y="380" />
              <mxPoint x="430" y="380" />
            </Array>
          </mxGeometry>
        </mxCell>
        <mxCell id="QeTMNxzh0xOTBO19bwK3-11" value="Gopay" style="rhombus;whiteSpace=wrap;html=1;rounded=1;shadow=0;strokeWidth=1;glass=0;" vertex="1" parent="WIyWlLk6GJQsqaUBKTNV-1">
          <mxGeometry x="519.38" y="170" width="80" height="80" as="geometry" />
        </mxCell>
        <mxCell id="QeTMNxzh0xOTBO19bwK3-19" value="" style="edgeStyle=orthogonalEdgeStyle;rounded=0;orthogonalLoop=1;jettySize=auto;html=1;" edge="1" parent="WIyWlLk6GJQsqaUBKTNV-1" source="QeTMNxzh0xOTBO19bwK3-16" target="QeTMNxzh0xOTBO19bwK3-18">
          <mxGeometry relative="1" as="geometry" />
        </mxCell>
        <mxCell id="QeTMNxzh0xOTBO19bwK3-29" value="" style="edgeStyle=orthogonalEdgeStyle;rounded=0;orthogonalLoop=1;jettySize=auto;html=1;" edge="1" parent="WIyWlLk6GJQsqaUBKTNV-1" source="QeTMNxzh0xOTBO19bwK3-16" target="QeTMNxzh0xOTBO19bwK3-28">
          <mxGeometry relative="1" as="geometry" />
        </mxCell>
        <mxCell id="QeTMNxzh0xOTBO19bwK3-16" value="Create VA /Charge request" style="whiteSpace=wrap;html=1;rounded=1;shadow=0;strokeWidth=1;glass=0;" vertex="1" parent="WIyWlLk6GJQsqaUBKTNV-1">
          <mxGeometry x="150" y="759" width="120" height="40" as="geometry" />
        </mxCell>
        <mxCell id="QeTMNxzh0xOTBO19bwK3-64" style="edgeStyle=orthogonalEdgeStyle;rounded=0;orthogonalLoop=1;jettySize=auto;html=1;exitX=1;exitY=0.75;exitDx=0;exitDy=0;entryX=0.5;entryY=0;entryDx=0;entryDy=0;" edge="1" parent="WIyWlLk6GJQsqaUBKTNV-1" source="QeTMNxzh0xOTBO19bwK3-18" target="QeTMNxzh0xOTBO19bwK3-20">
          <mxGeometry relative="1" as="geometry">
            <Array as="points">
              <mxPoint x="270" y="900" />
              <mxPoint x="430" y="900" />
            </Array>
          </mxGeometry>
        </mxCell>
        <mxCell id="QeTMNxzh0xOTBO19bwK3-18" value="Create VA Repayment Details Record" style="whiteSpace=wrap;html=1;rounded=1;shadow=0;strokeWidth=1;glass=0;" vertex="1" parent="WIyWlLk6GJQsqaUBKTNV-1">
          <mxGeometry x="150" y="849" width="120" height="60" as="geometry" />
        </mxCell>
        <mxCell id="QeTMNxzh0xOTBO19bwK3-23" value="" style="edgeStyle=orthogonalEdgeStyle;rounded=0;orthogonalLoop=1;jettySize=auto;html=1;" edge="1" parent="WIyWlLk6GJQsqaUBKTNV-1" source="QeTMNxzh0xOTBO19bwK3-20" target="QeTMNxzh0xOTBO19bwK3-22">
          <mxGeometry relative="1" as="geometry" />
        </mxCell>
        <mxCell id="QeTMNxzh0xOTBO19bwK3-20" value="Update the &lt;br&gt;ReferenceId in Bills Table" style="whiteSpace=wrap;html=1;rounded=1;shadow=0;strokeWidth=1;glass=0;" vertex="1" parent="WIyWlLk6GJQsqaUBKTNV-1">
          <mxGeometry x="370" y="950" width="120" height="60" as="geometry" />
        </mxCell>
        <mxCell id="QeTMNxzh0xOTBO19bwK3-27" value="" style="edgeStyle=orthogonalEdgeStyle;rounded=0;orthogonalLoop=1;jettySize=auto;html=1;" edge="1" parent="WIyWlLk6GJQsqaUBKTNV-1" source="QeTMNxzh0xOTBO19bwK3-22">
          <mxGeometry relative="1" as="geometry">
            <mxPoint x="430" y="1160" as="targetPoint" />
          </mxGeometry>
        </mxCell>
        <mxCell id="QeTMNxzh0xOTBO19bwK3-22" value="Return success" style="whiteSpace=wrap;html=1;rounded=1;shadow=0;strokeWidth=1;glass=0;" vertex="1" parent="WIyWlLk6GJQsqaUBKTNV-1">
          <mxGeometry x="370" y="1060" width="120" height="40" as="geometry" />
        </mxCell>
        <mxCell id="QeTMNxzh0xOTBO19bwK3-37" style="edgeStyle=orthogonalEdgeStyle;rounded=0;orthogonalLoop=1;jettySize=auto;html=1;exitX=0.5;exitY=0;exitDx=0;exitDy=0;" edge="1" parent="WIyWlLk6GJQsqaUBKTNV-1">
          <mxGeometry relative="1" as="geometry">
            <mxPoint x="430" y="1170" as="targetPoint" />
            <mxPoint x="430" y="1160" as="sourcePoint" />
          </mxGeometry>
        </mxCell>
        <mxCell id="QeTMNxzh0xOTBO19bwK3-26" value="End" style="ellipse;whiteSpace=wrap;html=1;rounded=1;shadow=0;strokeWidth=1;glass=0;" vertex="1" parent="WIyWlLk6GJQsqaUBKTNV-1">
          <mxGeometry x="414" y="1170" width="40" height="40" as="geometry" />
        </mxCell>
        <mxCell id="QeTMNxzh0xOTBO19bwK3-31" style="edgeStyle=orthogonalEdgeStyle;rounded=0;orthogonalLoop=1;jettySize=auto;html=1;exitX=0.5;exitY=1;exitDx=0;exitDy=0;entryX=1;entryY=0.5;entryDx=0;entryDy=0;" edge="1" parent="WIyWlLk6GJQsqaUBKTNV-1" source="QeTMNxzh0xOTBO19bwK3-28" target="QeTMNxzh0xOTBO19bwK3-18">
          <mxGeometry relative="1" as="geometry" />
        </mxCell>
        <mxCell id="QeTMNxzh0xOTBO19bwK3-32" value="true" style="edgeLabel;html=1;align=center;verticalAlign=middle;resizable=0;points=[];" vertex="1" connectable="0" parent="QeTMNxzh0xOTBO19bwK3-31">
          <mxGeometry x="-0.4983" y="2" relative="1" as="geometry">
            <mxPoint as="offset" />
          </mxGeometry>
        </mxCell>
        <mxCell id="QeTMNxzh0xOTBO19bwK3-65" style="edgeStyle=orthogonalEdgeStyle;rounded=0;orthogonalLoop=1;jettySize=auto;html=1;exitX=1;exitY=0.5;exitDx=0;exitDy=0;entryX=0;entryY=0.5;entryDx=0;entryDy=0;" edge="1" parent="WIyWlLk6GJQsqaUBKTNV-1" source="QeTMNxzh0xOTBO19bwK3-28" target="QeTMNxzh0xOTBO19bwK3-82">
          <mxGeometry relative="1" as="geometry">
            <mxPoint x="416.96000000000004" y="799" as="targetPoint" />
          </mxGeometry>
        </mxCell>
        <mxCell id="QeTMNxzh0xOTBO19bwK3-76" value="False" style="edgeLabel;html=1;align=center;verticalAlign=middle;resizable=0;points=[];" vertex="1" connectable="0" parent="QeTMNxzh0xOTBO19bwK3-65">
          <mxGeometry x="-0.2281" y="-1" relative="1" as="geometry">
            <mxPoint as="offset" />
          </mxGeometry>
        </mxCell>
        <mxCell id="QeTMNxzh0xOTBO19bwK3-28" value="isSuccess" style="rhombus;whiteSpace=wrap;html=1;rounded=1;shadow=0;strokeWidth=1;glass=0;" vertex="1" parent="WIyWlLk6GJQsqaUBKTNV-1">
          <mxGeometry x="315" y="749" width="65" height="60" as="geometry" />
        </mxCell>
        <mxCell id="QeTMNxzh0xOTBO19bwK3-44" value="" style="edgeStyle=orthogonalEdgeStyle;rounded=0;orthogonalLoop=1;jettySize=auto;html=1;" edge="1" parent="WIyWlLk6GJQsqaUBKTNV-1" source="QeTMNxzh0xOTBO19bwK3-40" target="QeTMNxzh0xOTBO19bwK3-11">
          <mxGeometry relative="1" as="geometry" />
        </mxCell>
        <mxCell id="QeTMNxzh0xOTBO19bwK3-59" value="Gopay" style="edgeLabel;html=1;align=center;verticalAlign=middle;resizable=0;points=[];" vertex="1" connectable="0" parent="QeTMNxzh0xOTBO19bwK3-44">
          <mxGeometry x="-0.4182" y="2" relative="1" as="geometry">
            <mxPoint as="offset" />
          </mxGeometry>
        </mxCell>
        <mxCell id="QeTMNxzh0xOTBO19bwK3-48" value="" style="edgeStyle=orthogonalEdgeStyle;rounded=0;orthogonalLoop=1;jettySize=auto;html=1;" edge="1" parent="WIyWlLk6GJQsqaUBKTNV-1" source="QeTMNxzh0xOTBO19bwK3-40" target="QeTMNxzh0xOTBO19bwK3-47">
          <mxGeometry relative="1" as="geometry" />
        </mxCell>
        <mxCell id="QeTMNxzh0xOTBO19bwK3-58" value="VA" style="edgeLabel;html=1;align=center;verticalAlign=middle;resizable=0;points=[];" vertex="1" connectable="0" parent="QeTMNxzh0xOTBO19bwK3-48">
          <mxGeometry x="-0.0818" y="-1" relative="1" as="geometry">
            <mxPoint as="offset" />
          </mxGeometry>
        </mxCell>
        <mxCell id="QeTMNxzh0xOTBO19bwK3-40" value="Validate Bill" style="rhombus;whiteSpace=wrap;html=1;rounded=1;shadow=0;strokeWidth=1;glass=0;" vertex="1" parent="WIyWlLk6GJQsqaUBKTNV-1">
          <mxGeometry x="390" y="170" width="80" height="80" as="geometry" />
        </mxCell>
        <mxCell id="QeTMNxzh0xOTBO19bwK3-95" value="foreach bill" style="edgeStyle=orthogonalEdgeStyle;rounded=0;orthogonalLoop=1;jettySize=auto;html=1;" edge="1" parent="WIyWlLk6GJQsqaUBKTNV-1" source="QeTMNxzh0xOTBO19bwK3-47" target="QeTMNxzh0xOTBO19bwK3-94">
          <mxGeometry relative="1" as="geometry" />
        </mxCell>
        <mxCell id="QeTMNxzh0xOTBO19bwK3-47" value="are there any active bills" style="rhombus;whiteSpace=wrap;html=1;rounded=1;shadow=0;strokeWidth=1;glass=0;" vertex="1" parent="WIyWlLk6GJQsqaUBKTNV-1">
          <mxGeometry x="250" y="175" width="95" height="70" as="geometry" />
        </mxCell>
        <mxCell id="QeTMNxzh0xOTBO19bwK3-54" style="edgeStyle=orthogonalEdgeStyle;rounded=0;orthogonalLoop=1;jettySize=auto;html=1;exitX=0;exitY=0.5;exitDx=0;exitDy=0;entryX=0.5;entryY=0;entryDx=0;entryDy=0;" edge="1" parent="WIyWlLk6GJQsqaUBKTNV-1" source="QeTMNxzh0xOTBO19bwK3-52" target="QeTMNxzh0xOTBO19bwK3-16">
          <mxGeometry relative="1" as="geometry" />
        </mxCell>
        <mxCell id="QeTMNxzh0xOTBO19bwK3-55" value="VA" style="edgeLabel;html=1;align=center;verticalAlign=middle;resizable=0;points=[];" vertex="1" connectable="0" parent="QeTMNxzh0xOTBO19bwK3-54">
          <mxGeometry x="-0.1968" relative="1" as="geometry">
            <mxPoint as="offset" />
          </mxGeometry>
        </mxCell>
        <mxCell id="QeTMNxzh0xOTBO19bwK3-62" value="" style="edgeStyle=orthogonalEdgeStyle;rounded=0;orthogonalLoop=1;jettySize=auto;html=1;" edge="1" parent="WIyWlLk6GJQsqaUBKTNV-1" source="QeTMNxzh0xOTBO19bwK3-52" target="QeTMNxzh0xOTBO19bwK3-61">
          <mxGeometry relative="1" as="geometry" />
        </mxCell>
        <mxCell id="QeTMNxzh0xOTBO19bwK3-63" value="Gopay" style="edgeLabel;html=1;align=center;verticalAlign=middle;resizable=0;points=[];" vertex="1" connectable="0" parent="QeTMNxzh0xOTBO19bwK3-62">
          <mxGeometry x="-0.5546" y="3" relative="1" as="geometry">
            <mxPoint as="offset" />
          </mxGeometry>
        </mxCell>
        <mxCell id="QeTMNxzh0xOTBO19bwK3-52" value="Payment&lt;br&gt;Gateway" style="rhombus;whiteSpace=wrap;html=1;rounded=1;shadow=0;strokeWidth=1;glass=0;" vertex="1" parent="WIyWlLk6GJQsqaUBKTNV-1">
          <mxGeometry x="390" y="650" width="80" height="80" as="geometry" />
        </mxCell>
        <mxCell id="QeTMNxzh0xOTBO19bwK3-71" style="edgeStyle=orthogonalEdgeStyle;rounded=0;orthogonalLoop=1;jettySize=auto;html=1;exitX=0.5;exitY=1;exitDx=0;exitDy=0;entryX=0.5;entryY=0;entryDx=0;entryDy=0;" edge="1" parent="WIyWlLk6GJQsqaUBKTNV-1" source="QeTMNxzh0xOTBO19bwK3-61" target="QeTMNxzh0xOTBO19bwK3-69">
          <mxGeometry relative="1" as="geometry" />
        </mxCell>
        <mxCell id="QeTMNxzh0xOTBO19bwK3-61" value="Gopay Initiate Payment Request" style="whiteSpace=wrap;html=1;rounded=1;shadow=0;strokeWidth=1;glass=0;" vertex="1" parent="WIyWlLk6GJQsqaUBKTNV-1">
          <mxGeometry x="570" y="759" width="120" height="41" as="geometry" />
        </mxCell>
        <mxCell id="QeTMNxzh0xOTBO19bwK3-72" style="edgeStyle=orthogonalEdgeStyle;rounded=0;orthogonalLoop=1;jettySize=auto;html=1;entryX=1;entryY=0.5;entryDx=0;entryDy=0;" edge="1" parent="WIyWlLk6GJQsqaUBKTNV-1" source="QeTMNxzh0xOTBO19bwK3-69" target="QeTMNxzh0xOTBO19bwK3-82">
          <mxGeometry relative="1" as="geometry">
            <mxPoint x="470" y="840" as="targetPoint" />
          </mxGeometry>
        </mxCell>
        <mxCell id="QeTMNxzh0xOTBO19bwK3-73" value="False" style="edgeLabel;html=1;align=center;verticalAlign=middle;resizable=0;points=[];" vertex="1" connectable="0" parent="QeTMNxzh0xOTBO19bwK3-72">
          <mxGeometry x="-0.3051" y="-1" relative="1" as="geometry">
            <mxPoint as="offset" />
          </mxGeometry>
        </mxCell>
        <mxCell id="QeTMNxzh0xOTBO19bwK3-77" style="edgeStyle=orthogonalEdgeStyle;rounded=0;orthogonalLoop=1;jettySize=auto;html=1;exitX=0.5;exitY=1;exitDx=0;exitDy=0;entryX=0.5;entryY=0;entryDx=0;entryDy=0;" edge="1" parent="WIyWlLk6GJQsqaUBKTNV-1" source="QeTMNxzh0xOTBO19bwK3-69" target="QeTMNxzh0xOTBO19bwK3-20">
          <mxGeometry relative="1" as="geometry">
            <Array as="points">
              <mxPoint x="430" y="900" />
            </Array>
          </mxGeometry>
        </mxCell>
        <mxCell id="QeTMNxzh0xOTBO19bwK3-79" value="True" style="edgeLabel;html=1;align=center;verticalAlign=middle;resizable=0;points=[];" vertex="1" connectable="0" parent="QeTMNxzh0xOTBO19bwK3-77">
          <mxGeometry x="-0.5055" relative="1" as="geometry">
            <mxPoint as="offset" />
          </mxGeometry>
        </mxCell>
        <mxCell id="QeTMNxzh0xOTBO19bwK3-69" value="isSuccess" style="rhombus;whiteSpace=wrap;html=1;rounded=1;shadow=0;strokeWidth=1;glass=0;" vertex="1" parent="WIyWlLk6GJQsqaUBKTNV-1">
          <mxGeometry x="599.38" y="840" width="61.25" height="60" as="geometry" />
        </mxCell>
        <mxCell id="QeTMNxzh0xOTBO19bwK3-82" value="A" style="ellipse;whiteSpace=wrap;html=1;aspect=fixed;" vertex="1" parent="WIyWlLk6GJQsqaUBKTNV-1">
          <mxGeometry x="440" y="799" width="40" height="40" as="geometry" />
        </mxCell>
        <mxCell id="QeTMNxzh0xOTBO19bwK3-91" style="edgeStyle=orthogonalEdgeStyle;rounded=0;orthogonalLoop=1;jettySize=auto;html=1;exitX=0.5;exitY=1;exitDx=0;exitDy=0;entryX=0.5;entryY=0;entryDx=0;entryDy=0;" edge="1" parent="WIyWlLk6GJQsqaUBKTNV-1" source="QeTMNxzh0xOTBO19bwK3-83" target="QeTMNxzh0xOTBO19bwK3-86">
          <mxGeometry relative="1" as="geometry" />
        </mxCell>
        <mxCell id="QeTMNxzh0xOTBO19bwK3-83" value="A" style="ellipse;whiteSpace=wrap;html=1;aspect=fixed;" vertex="1" parent="WIyWlLk6GJQsqaUBKTNV-1">
          <mxGeometry x="90" y="930" width="40" height="40" as="geometry" />
        </mxCell>
        <mxCell id="QeTMNxzh0xOTBO19bwK3-88" value="" style="edgeStyle=orthogonalEdgeStyle;rounded=0;orthogonalLoop=1;jettySize=auto;html=1;" edge="1" parent="WIyWlLk6GJQsqaUBKTNV-1" source="QeTMNxzh0xOTBO19bwK3-86" target="QeTMNxzh0xOTBO19bwK3-87">
          <mxGeometry relative="1" as="geometry" />
        </mxCell>
        <mxCell id="QeTMNxzh0xOTBO19bwK3-86" value="Cancel the Bill" style="rounded=1;whiteSpace=wrap;html=1;" vertex="1" parent="WIyWlLk6GJQsqaUBKTNV-1">
          <mxGeometry x="55" y="990" width="110" height="30" as="geometry" />
        </mxCell>
        <mxCell id="QeTMNxzh0xOTBO19bwK3-90" style="edgeStyle=orthogonalEdgeStyle;rounded=0;orthogonalLoop=1;jettySize=auto;html=1;exitX=0.5;exitY=1;exitDx=0;exitDy=0;entryX=0;entryY=0.5;entryDx=0;entryDy=0;" edge="1" parent="WIyWlLk6GJQsqaUBKTNV-1" source="QeTMNxzh0xOTBO19bwK3-87" target="QeTMNxzh0xOTBO19bwK3-26">
          <mxGeometry relative="1" as="geometry" />
        </mxCell>
        <mxCell id="QeTMNxzh0xOTBO19bwK3-87" value="Log And throw Exception" style="whiteSpace=wrap;html=1;rounded=1;" vertex="1" parent="WIyWlLk6GJQsqaUBKTNV-1">
          <mxGeometry x="50" y="1055" width="120" height="35" as="geometry" />
        </mxCell>
        <mxCell id="QeTMNxzh0xOTBO19bwK3-97" value="" style="edgeStyle=orthogonalEdgeStyle;rounded=0;orthogonalLoop=1;jettySize=auto;html=1;" edge="1" parent="WIyWlLk6GJQsqaUBKTNV-1" source="QeTMNxzh0xOTBO19bwK3-94" target="QeTMNxzh0xOTBO19bwK3-96">
          <mxGeometry relative="1" as="geometry" />
        </mxCell>
        <mxCell id="QeTMNxzh0xOTBO19bwK3-94" value="Fetch bill status from Midtrans" style="whiteSpace=wrap;html=1;rounded=1;shadow=0;strokeWidth=1;glass=0;" vertex="1" parent="WIyWlLk6GJQsqaUBKTNV-1">
          <mxGeometry x="70" y="180" width="80" height="50" as="geometry" />
        </mxCell>
        <mxCell id="QeTMNxzh0xOTBO19bwK3-99" value="False" style="edgeStyle=orthogonalEdgeStyle;rounded=0;orthogonalLoop=1;jettySize=auto;html=1;" edge="1" parent="WIyWlLk6GJQsqaUBKTNV-1" source="QeTMNxzh0xOTBO19bwK3-96" target="QeTMNxzh0xOTBO19bwK3-98">
          <mxGeometry relative="1" as="geometry" />
        </mxCell>
        <mxCell id="QeTMNxzh0xOTBO19bwK3-106" value="" style="edgeStyle=orthogonalEdgeStyle;rounded=0;orthogonalLoop=1;jettySize=auto;html=1;" edge="1" parent="WIyWlLk6GJQsqaUBKTNV-1" source="QeTMNxzh0xOTBO19bwK3-96" target="QeTMNxzh0xOTBO19bwK3-105">
          <mxGeometry relative="1" as="geometry" />
        </mxCell>
        <mxCell id="QeTMNxzh0xOTBO19bwK3-113" value="True" style="edgeLabel;html=1;align=center;verticalAlign=middle;resizable=0;points=[];" vertex="1" connectable="0" parent="QeTMNxzh0xOTBO19bwK3-106">
          <mxGeometry x="-0.2667" y="1" relative="1" as="geometry">
            <mxPoint as="offset" />
          </mxGeometry>
        </mxCell>
        <mxCell id="QeTMNxzh0xOTBO19bwK3-96" value="Deny" style="rhombus;whiteSpace=wrap;html=1;rounded=1;shadow=0;strokeWidth=1;glass=0;" vertex="1" parent="WIyWlLk6GJQsqaUBKTNV-1">
          <mxGeometry x="80" y="260" width="60" height="60" as="geometry" />
        </mxCell>
        <mxCell id="QeTMNxzh0xOTBO19bwK3-101" value="" style="edgeStyle=orthogonalEdgeStyle;rounded=0;orthogonalLoop=1;jettySize=auto;html=1;" edge="1" parent="WIyWlLk6GJQsqaUBKTNV-1" source="QeTMNxzh0xOTBO19bwK3-98" target="QeTMNxzh0xOTBO19bwK3-100">
          <mxGeometry relative="1" as="geometry" />
        </mxCell>
        <mxCell id="QeTMNxzh0xOTBO19bwK3-103" value="False" style="edgeLabel;html=1;align=center;verticalAlign=middle;resizable=0;points=[];" vertex="1" connectable="0" parent="QeTMNxzh0xOTBO19bwK3-101">
          <mxGeometry x="0.2" y="-2" relative="1" as="geometry">
            <mxPoint x="4" y="-1" as="offset" />
          </mxGeometry>
        </mxCell>
        <mxCell id="QeTMNxzh0xOTBO19bwK3-98" value="Pending" style="rhombus;whiteSpace=wrap;html=1;rounded=1;shadow=0;strokeWidth=1;glass=0;" vertex="1" parent="WIyWlLk6GJQsqaUBKTNV-1">
          <mxGeometry x="80" y="350" width="60" height="60" as="geometry" />
        </mxCell>
        <mxCell id="QeTMNxzh0xOTBO19bwK3-104" style="edgeStyle=orthogonalEdgeStyle;rounded=0;orthogonalLoop=1;jettySize=auto;html=1;exitX=1;exitY=0.5;exitDx=0;exitDy=0;" edge="1" parent="WIyWlLk6GJQsqaUBKTNV-1" source="QeTMNxzh0xOTBO19bwK3-100" target="WIyWlLk6GJQsqaUBKTNV-11">
          <mxGeometry relative="1" as="geometry" />
        </mxCell>
        <mxCell id="QeTMNxzh0xOTBO19bwK3-100" value="Capture" style="rhombus;whiteSpace=wrap;html=1;rounded=1;shadow=0;strokeWidth=1;glass=0;" vertex="1" parent="WIyWlLk6GJQsqaUBKTNV-1">
          <mxGeometry x="80" y="440" width="60" height="60" as="geometry" />
        </mxCell>
        <mxCell id="QeTMNxzh0xOTBO19bwK3-105" value="B" style="ellipse;whiteSpace=wrap;html=1;rounded=1;shadow=0;strokeWidth=1;glass=0;" vertex="1" parent="WIyWlLk6GJQsqaUBKTNV-1">
          <mxGeometry x="200" y="270" width="40" height="40" as="geometry" />
        </mxCell>
        <mxCell id="QeTMNxzh0xOTBO19bwK3-110" value="" style="edgeStyle=orthogonalEdgeStyle;rounded=0;orthogonalLoop=1;jettySize=auto;html=1;" edge="1" parent="WIyWlLk6GJQsqaUBKTNV-1" target="QeTMNxzh0xOTBO19bwK3-111">
          <mxGeometry relative="1" as="geometry">
            <mxPoint x="140" y="380" as="sourcePoint" />
          </mxGeometry>
        </mxCell>
        <mxCell id="QeTMNxzh0xOTBO19bwK3-114" value="True" style="edgeLabel;html=1;align=center;verticalAlign=middle;resizable=0;points=[];" vertex="1" connectable="0" parent="QeTMNxzh0xOTBO19bwK3-110">
          <mxGeometry x="-0.1" y="-2" relative="1" as="geometry">
            <mxPoint as="offset" />
          </mxGeometry>
        </mxCell>
        <mxCell id="QeTMNxzh0xOTBO19bwK3-111" value="C" style="ellipse;whiteSpace=wrap;html=1;rounded=1;shadow=0;strokeWidth=1;glass=0;" vertex="1" parent="WIyWlLk6GJQsqaUBKTNV-1">
          <mxGeometry x="200" y="360" width="40" height="40" as="geometry" />
        </mxCell>
      </root>
    </mxGraphModel>
  </diagram>
</mxfile>
